<svg xmlns="http://www.w3.org/2000/svg" width="1320" height="1960" viewBox="0 0 1320 1960" font-family="'Songti SC','Noto Serif SC','STSong','Source Han Serif SC',serif">
  <defs>
    <filter id="paperGrain" x="0" y="0" width="100%" height="100%">
      <feTurbulence type="fractalNoise" baseFrequency="0.9" numOctaves="2" seed="3"/>
      <feColorMatrix values="0 0 0 0 0.62
                              0 0 0 0 0.55
                              0 0 0 0 0.42
                              0 0 0 0.05 0"/>
      <feComposite in2="SourceGraphic" operator="in"/>
    </filter>

    <filter id="inkBleed" x="-20%" y="-20%" width="140%" height="140%">
      <feGaussianBlur stdDeviation="0.5"/>
    </filter>

    <!-- 长江水墨（西南深 → 东北浅） -->
    <linearGradient id="riverGrad" x1="0.05" y1="0.95" x2="0.95" y2="0.05">
      <stop offset="0%" stop-color="#2c5d7e" stop-opacity="0.95"/>
      <stop offset="35%" stop-color="#4a7e9e" stop-opacity="0.88"/>
      <stop offset="70%" stop-color="#6c9bba" stop-opacity="0.78"/>
      <stop offset="100%" stop-color="#9cc0d6" stop-opacity="0.65"/>
    </linearGradient>

    <linearGradient id="riverShine" x1="0" y1="0" x2="0" y2="1">
      <stop offset="0%" stop-color="#eaf3f8" stop-opacity="0.95"/>
      <stop offset="50%" stop-color="#ffffff" stop-opacity="0.75"/>
      <stop offset="100%" stop-color="#eaf3f8" stop-opacity="0.4"/>
    </linearGradient>

    <linearGradient id="mountainGrad1" x1="0" y1="0" x2="0" y2="1">
      <stop offset="0%" stop-color="#8a8780" stop-opacity="0.55"/>
      <stop offset="100%" stop-color="#b5b1a8" stop-opacity="0.1"/>
    </linearGradient>
    <linearGradient id="mountainGrad2" x1="0" y1="0" x2="0" y2="1">
      <stop offset="0%" stop-color="#6a6862" stop-opacity="0.45"/>
      <stop offset="100%" stop-color="#9a958c" stop-opacity="0.1"/>
    </linearGradient>

    <radialGradient id="sealGrad" cx="0.3" cy="0.3" r="0.9">
      <stop offset="0%" stop-color="#c44032"/>
      <stop offset="100%" stop-color="#8a2a1f"/>
    </radialGradient>

    <linearGradient id="northBank" x1="0" y1="0" x2="0" y2="1">
      <stop offset="0%" stop-color="#cfd8df" stop-opacity="0.45"/>
      <stop offset="100%" stop-color="#a8b3bd" stop-opacity="0.15"/>
    </linearGradient>
    <linearGradient id="southBank" x1="0" y1="0" x2="0" y2="1">
      <stop offset="0%" stop-color="#f0d9b0" stop-opacity="0.5"/>
      <stop offset="100%" stop-color="#e0c290" stop-opacity="0.18"/>
    </linearGradient>

    <linearGradient id="panelBg" x1="0" y1="0" x2="0" y2="1">
      <stop offset="0%" stop-color="#fffdf6"/>
      <stop offset="100%" stop-color="#f6efde"/>
    </linearGradient>

    <symbol id="cloud" viewBox="0 0 120 40">
      <path d="M 5 25 Q 15 8, 30 18 Q 40 5, 55 18 Q 70 5, 85 18 Q 100 8, 115 25 Q 100 32, 85 28 Q 70 35, 55 28 Q 40 35, 30 28 Q 15 32, 5 25 Z"
            fill="#a63a2b" fill-opacity="0.18" stroke="#a63a2b" stroke-width="0.8" stroke-opacity="0.4"/>
    </symbol>

    <symbol id="compass" viewBox="-50 -50 100 100">
      <circle r="44" fill="#fffdf6" stroke="#2e2a26" stroke-width="1.2"/>
      <circle r="38" fill="none" stroke="#2e2a26" stroke-width="0.5" stroke-dasharray="2 2"/>
      <circle r="30" fill="none" stroke="#b98a3f" stroke-width="0.6"/>
      <g stroke="#2e2a26" stroke-width="0.6">
        <line x1="0" y1="-44" x2="0" y2="44"/>
        <line x1="-44" y1="0" x2="44" y2="0"/>
        <line x1="-31" y1="-31" x2="31" y2="31"/>
        <line x1="-31" y1="31" x2="31" y2="-31"/>
      </g>
      <g stroke="#a63a2b" stroke-width="1.4">
        <line x1="-31" y1="31" x2="31" y2="-31"/>
      </g>
      <g fill="#2e2a26" font-size="9" text-anchor="middle">
        <text y="-32">北</text>
        <text y="38">南</text>
        <text x="35" y="3">东</text>
        <text x="-35" y="3">西</text>
      </g>
      <text x="22" y="-22" font-size="7" fill="#a63a2b" font-weight="700">东南</text>
      <text x="-22" y="26" font-size="7" fill="#2e5f8a" font-weight="700">西北</text>
      <circle r="2.5" fill="#2e2a26"/>
    </symbol>

    <symbol id="city" viewBox="-14 -14 28 28">
      <circle r="11" fill="#fffdf6" stroke="#2e2a26" stroke-width="1.4"/>
      <circle r="11" fill="none" stroke="#a63a2b" stroke-width="0.6" stroke-dasharray="1.5 1.5"/>
      <rect x="-4.5" y="-3" width="9" height="6" fill="#a63a2b"/>
      <polygon points="-4.5,-3 0,-7 4.5,-3" fill="#a63a2b"/>
      <circle r="1.6" fill="#2e2a26"/>
    </symbol>

    <!-- 水波纹 -->
    <symbol id="ripple" viewBox="0 0 60 8">
      <path d="M 0 4 Q 10 0, 20 4 T 40 4 T 60 4" fill="none" stroke="#3a6b8a" stroke-width="0.8" stroke-opacity="0.5"/>
    </symbol>
  </defs>

  <!-- 宣纸底 -->
  <rect width="1320" height="1960" fill="#faf6ee"/>
  <rect width="1320" height="1960" fill="#faf6ee" filter="url(#paperGrain)" opacity="0.3"/>

  <!-- 顶部题首 -->
  <g transform="translate(660, 70)">
    <text text-anchor="middle" font-size="13" letter-spacing="14" fill="#6b625a">方　位　与　演　变</text>
    <text y="44" text-anchor="middle" font-size="42" font-weight="700" fill="#2e2a26" letter-spacing="6">江东 · 江左 · 江右 · 江南</text>
    <line x1="-90" y1="64" x2="90" y2="64" stroke="#a63a2b" stroke-width="1.5"/>
    <circle cx="0" cy="64" r="3" fill="#a63a2b"/>
  </g>

  <!-- ==================== 面板一：方位判定 ==================== -->
  <g transform="translate(60, 180)">
    <rect width="1200" height="780" rx="6" fill="url(#panelBg)" stroke="#2e2a26" stroke-width="1.2"/>
    <rect x="8" y="8" width="1184" height="764" rx="4" fill="none" stroke="#b98a3f" stroke-width="0.6"/>

    <!-- 标题 -->
    <g transform="translate(600, 60)">
      <text text-anchor="middle" font-size="13" letter-spacing="6" fill="#a63a2b">壹</text>
      <text y="32" text-anchor="middle" font-size="26" font-weight="700" fill="#2e2a26">方位判定：长江下游的「东南岸 / 西北岸」</text>
      <line x1="-110" y1="48" x2="110" y2="48" stroke="#a63a2b" stroke-width="1"/>
    </g>

    <!-- 远山（背景层·先画） -->
    <g>
      <path d="M 60 280 L 130 200 L 210 240 L 310 160 L 400 210 L 500 170 L 600 210 L 700 170 L 800 220 L 900 170 L 1010 210 L 1110 180 L 1140 240 L 1140 340 L 60 340 Z"
            fill="url(#mountainGrad1)"/>
      <path d="M 60 320 L 180 260 L 290 300 L 400 240 L 510 280 L 620 250 L 730 290 L 840 260 L 950 300 L 1060 270 L 1140 300 L 1140 360 L 60 360 Z"
            fill="url(#mountainGrad2)"/>
    </g>

    <!-- 西北岸色块（北·江北·浅灰） -->
    <g>
      <path d="M 60 360 L 1140 360 L 1140 460 L 60 460 Z" fill="url(#northBank)"/>
      <text x="200" y="420" font-size="20" font-weight="700" fill="#55606b" letter-spacing="3" opacity="0.6">江  北 · 中  原</text>
    </g>

    <!-- 东南岸色块（南·吴地·浅赭） -->
    <g>
      <path d="M 60 460 L 1140 460 L 1140 720 L 60 720 Z" fill="url(#southBank)"/>
      <text x="180" y="690" font-size="20" font-weight="700" fill="#a08566" letter-spacing="3" opacity="0.55">东 南 岸 · 吴 地</text>
    </g>

    <!-- 卷云纹装饰（左上） -->
    <use href="#cloud" x="50" y="100" width="120" height="32"/>
    <use href="#cloud" x="1080" y="640" width="120" height="32"/>

    <!-- 长江水墨主体（自西南向东北·九曲东流） -->
    <g>
      <!-- 最外层墨晕（不规则·多段） -->
      <path d="M 80 620 C 180 620, 220 540, 320 510 C 420 480, 460 420, 540 450 C 620 480, 670 520, 720 460 C 770 400, 800 320, 870 300 C 940 280, 990 240, 1040 200 C 1085 165, 1110 130, 1140 110"
            fill="none" stroke="#2c5d7e" stroke-width="135" stroke-linecap="round" opacity="0.14" filter="url(#inkBleed)"/>
      <path d="M 90 610 C 190 610, 225 530, 325 500 C 425 470, 465 410, 545 440 C 625 470, 670 510, 720 450 C 770 390, 800 310, 870 290 C 940 270, 990 230, 1040 190 C 1085 155, 1110 125, 1140 100"
            fill="none" stroke="#3a6b8a" stroke-width="100" stroke-linecap="round" opacity="0.22" filter="url(#inkBleed)"/>

      <!-- 主河道（渐变水墨·九曲） -->
      <path id="mainRiver" d="M 100 600 C 200 600, 230 520, 330 490 C 430 460, 470 400, 550 430 C 630 460, 680 500, 720 440 C 760 380, 800 300, 870 280 C 940 260, 990 220, 1040 180 C 1080 145, 1100 120, 1130 100"
            fill="none" stroke="url(#riverGrad)" stroke-width="72" stroke-linecap="round" opacity="0.92"/>

      <!-- 河面留白高光 -->
      <path d="M 120 590 C 220 590, 240 510, 335 482 C 430 452, 470 392, 548 422 C 628 452, 676 492, 716 434 C 756 374, 800 294, 864 274 C 934 254, 984 216, 1034 178 C 1074 144, 1094 118, 1116 100"
            fill="none" stroke="url(#riverShine)" stroke-width="22" stroke-linecap="round" opacity="0.55"/>

      <!-- 内层细流线 -->
      <path d="M 140 586 C 230 586, 250 508, 340 482 C 430 452, 470 392, 548 422 C 628 452, 672 492, 712 434 C 752 374, 800 294, 860 274 C 930 254, 980 216, 1030 180 C 1070 146, 1088 120, 1110 100"
            fill="none" stroke="#5d8ba6" stroke-width="2.5" stroke-linecap="round" opacity="0.55"/>
      <path d="M 160 580 C 245 580, 260 506, 340 480 C 426 450, 468 390, 546 420 C 622 450, 668 490, 708 434 C 748 374, 800 292, 856 272 C 926 252, 976 214, 1026 180 C 1066 146, 1084 120, 1100 100"
            fill="none" stroke="#88b0c8" stroke-width="1.2" stroke-linecap="round" opacity="0.7"/>

      <!-- 水波纹点缀 -->
      <use href="#ripple" x="200" y="530" width="60" height="8"/>
      <use href="#ripple" x="430" y="440" width="60" height="8"/>
      <use href="#ripple" x="650" y="470" width="60" height="8"/>
      <use href="#ripple" x="800" y="300" width="60" height="8"/>
    </g>

    <!-- 流向箭头 + 东北标注 -->
    <g>
      <polygon points="1118,90 1140,100 1124,116" fill="#2e5f8a"/>
      <text x="1040" y="80" text-anchor="middle" font-size="14" font-weight="700" fill="#2e5f8a" letter-spacing="2">东北流向</text>
    </g>

    <!-- 城市点（置于河道南岸·江之南） -->
    <g>
      <!-- 芜湖：南岸（河道中线 330,490 附近） -->
      <g>
        <line x1="330" y1="528" x2="330" y2="560" stroke="#a63a2b" stroke-width="1.2" stroke-dasharray="2 2"/>
        <use href="#city" x="316" y="560" width="28" height="28"/>
        <text x="330" y="612" text-anchor="middle" font-size="17" font-weight="700" fill="#2e2a26" letter-spacing="2">芜湖</text>
      </g>
      <!-- 南京：南岸（河道中线 720,440 附近） -->
      <g>
        <line x1="720" y1="478" x2="720" y2="510" stroke="#a63a2b" stroke-width="1.2" stroke-dasharray="2 2"/>
        <use href="#city" x="706" y="510" width="28" height="28"/>
        <text x="720" y="562" text-anchor="middle" font-size="17" font-weight="700" fill="#2e2a26" letter-spacing="2">南京</text>
      </g>
      <!-- 镇江：南岸（河道中线 1040,180 附近） -->
      <g>
        <line x1="1040" y1="218" x2="1040" y2="250" stroke="#a63a2b" stroke-width="1.2" stroke-dasharray="2 2"/>
        <use href="#city" x="1026" y="250" width="28" height="28"/>
        <text x="1040" y="302" text-anchor="middle" font-size="17" font-weight="700" fill="#2e2a26" letter-spacing="2">镇江</text>
      </g>
    </g>

    <!-- 两岸方位标注（朱红印章条·河道北侧） -->
    <g>
      <!-- 西北岸标注（河道北侧·江北） -->
      <g transform="translate(220, 410) rotate(-32)">
        <rect x="-180" y="-22" width="360" height="44" rx="4" fill="#fffdf6" stroke="#55606b" stroke-width="1.2"/>
        <rect x="-180" y="-22" width="6" height="44" fill="#55606b"/>
        <text x="0" y="6" text-anchor="middle" font-size="16" font-weight="700" fill="#55606b" letter-spacing="2">西北岸（北岸）＝ 江右 ＝ 江西</text>
      </g>
      <!-- 东南岸标注（河道北侧·中段上方） -->
      <g transform="translate(640, 280) rotate(-32)">
        <rect x="-200" y="-22" width="400" height="44" rx="4" fill="#fffdf6" stroke="#a63a2b" stroke-width="1.4"/>
        <rect x="-200" y="-22" width="6" height="44" fill="#a63a2b"/>
        <text x="0" y="6" text-anchor="middle" font-size="16" font-weight="700" fill="#a63a2b" letter-spacing="2">东南岸（南岸）＝ 江东 ＝ 江左</text>
      </g>
    </g>

    <!-- 江北说明框（远山色块左下） -->
    <g transform="translate(80, 220)">
      <rect width="280" height="106" rx="6" fill="#fffdf6" stroke="#9aa6b0" stroke-width="1"/>
      <rect width="280" height="26" rx="6" fill="#55606b"/>
      <rect y="20" width="280" height="6" fill="#55606b"/>
      <text x="14" y="18" font-size="14" font-weight="700" fill="#fffdf6" letter-spacing="2">江北 · 中原</text>
      <text x="14" y="52" font-size="13.5" fill="#3a3632">六朝「江右 / 江西」所指</text>
      <text x="14" y="72" font-size="13.5" fill="#3a3632">（江淮之间一带）</text>
      <text x="14" y="96" font-size="11" fill="#8a8480">坐北朝南 → 左＝东、右＝西</text>
    </g>

    <!-- 吴地说明框（东南岸色块右下） -->
    <g transform="translate(840, 600)">
      <rect width="320" height="106" rx="6" fill="#fffdf6" stroke="#b98a3f" stroke-width="1.2"/>
      <rect width="320" height="26" rx="6" fill="#a63a2b"/>
      <rect y="20" width="320" height="6" fill="#a63a2b"/>
      <text x="14" y="18" font-size="14" font-weight="700" fill="#fffdf6" letter-spacing="2">吴地 · 苏南 · 皖南沿江 · 浙北</text>
      <text x="14" y="52" font-size="13.5" fill="#3a3632">「江东 / 江左 / 江南」所指</text>
      <text x="14" y="72" font-size="13.5" fill="#3a3632">孙吴之基 · 六朝士族文化圈</text>
      <text x="14" y="96" font-size="11" fill="#a08566">故「江左＝江东、江右＝江西」</text>
    </g>

    <!-- 罗盘 -->
    <g transform="translate(1090, 510)">
      <use href="#compass" x="-40" y="-40" width="80" height="80"/>
      <text y="56" text-anchor="middle" font-size="10" fill="#6b625a" letter-spacing="1">东南 = 江东</text>
      <text y="70" text-anchor="middle" font-size="10" fill="#6b625a" letter-spacing="1">西北 = 江右</text>
    </g>

    <!-- 底部图例条 -->
    <g transform="translate(60, 736)">
      <line x1="0" y1="-8" x2="1080" y2="-8" stroke="#d8cfbe" stroke-width="0.6"/>
      <g transform="translate(40, 12)">
        <circle cx="0" cy="0" r="5" fill="#a63a2b"/>
        <text x="12" y="4" font-size="12" fill="#3a3632">江东/江左：东南岸 · 吴地（狭义江南）</text>
      </g>
      <g transform="translate(400, 12)">
        <rect x="-8" y="-4" width="16" height="8" fill="url(#riverGrad)"/>
        <text x="14" y="4" font-size="12" fill="#3a3632">长江下游：自西南向东北流</text>
      </g>
      <g transform="translate(760, 12)">
        <circle cx="0" cy="0" r="5" fill="#55606b"/>
        <text x="12" y="4" font-size="12" fill="#3a3632">江右/江西：西北岸 · 江北（六朝）</text>
      </g>
    </g>
  </g>

  <!-- ==================== 面板二：江西两条来源辨析 ==================== -->
  <g transform="translate(60, 1000)">
    <rect width="1200" height="400" rx="6" fill="url(#panelBg)" stroke="#2e2a26" stroke-width="1.2"/>
    <rect x="8" y="8" width="1184" height="384" rx="4" fill="none" stroke="#b98a3f" stroke-width="0.6"/>

    <!-- 标题 -->
    <g transform="translate(600, 60)">
      <text text-anchor="middle" font-size="13" letter-spacing="6" fill="#a63a2b">贰</text>
      <text y="32" text-anchor="middle" font-size="26" font-weight="700" fill="#2e2a26">关键辨析：今「江西」≠「江之西」——两条来源</text>
      <line x1="-110" y1="48" x2="110" y2="48" stroke="#a63a2b" stroke-width="1"/>
    </g>

    <!-- 左卡片：方位词来源 -->
    <g transform="translate(80, 110)">
      <rect width="450" height="240" rx="8" fill="#fffdf6" stroke="#9aa6b0" stroke-width="1"/>
      <rect width="450" height="40" rx="8" fill="#55606b"/>
      <rect y="32" width="450" height="8" fill="#55606b"/>
      <text x="20" y="26" font-size="15" font-weight="700" fill="#fffdf6" letter-spacing="2">来源一 · 方位词「江西 / 江右」</text>
      <text x="430" y="26" text-anchor="end" font-size="12" fill="#fffdf6" opacity="0.85">六　朝</text>

      <g transform="translate(40, 90)">
        <rect width="32" height="32" fill="url(#sealGrad)" rx="2"/>
        <text x="16" y="22" text-anchor="middle" font-size="20" font-weight="700" fill="#fffdf6">方</text>
      </g>
      <text x="90" y="105" font-size="16" font-weight="700" fill="#55606b">本义：长江下游西北岸（江北）</text>
      <text x="90" y="130" font-size="14" fill="#4a5560">所指：北方 · 中原（江淮之间）</text>
      <text x="90" y="152" font-size="14" fill="#4a5560">此「江西」与今江西省无源流关系</text>

      <line x1="20" y1="174" x2="430" y2="174" stroke="#d8cfbe" stroke-width="0.6" stroke-dasharray="2 3"/>

      <text x="20" y="200" font-size="14" font-weight="700" fill="#55606b">→ 「江之西」：江的西岸（西北岸）</text>
      <text x="20" y="222" font-size="11.5" fill="#8a8480">裴松之注引「江西」即指江北</text>
    </g>

    <!-- 中央 ≠ 印章 -->
    <g transform="translate(600, 230)">
      <circle r="42" fill="url(#sealGrad)" stroke="#8a2a1f" stroke-width="1.5"/>
      <circle r="34" fill="none" stroke="#fffdf6" stroke-width="1.2" stroke-dasharray="2 2"/>
      <text text-anchor="middle" y="14" font-size="48" font-weight="700" fill="#fffdf6">≠</text>
      <text text-anchor="middle" y="74" font-size="11" fill="#6b625a" letter-spacing="2">两源不同</text>
    </g>

    <!-- 右卡片：行政区来源 -->
    <g transform="translate(670, 110)">
      <rect width="450" height="240" rx="8" fill="#fffdf6" stroke="#b98a3f" stroke-width="1.2"/>
      <rect width="450" height="40" rx="8" fill="#a63a2b"/>
      <rect y="32" width="450" height="8" fill="#a63a2b"/>
      <text x="20" y="26" font-size="15" font-weight="700" fill="#fffdf6" letter-spacing="2">来源二 · 行政区「江南西道」</text>
      <text x="430" y="26" text-anchor="end" font-size="12" fill="#fffdf6" opacity="0.85">唐　代</text>

      <g transform="translate(40, 90)">
        <rect width="32" height="32" fill="url(#sealGrad)" rx="2"/>
        <text x="16" y="22" text-anchor="middle" font-size="20" font-weight="700" fill="#fffdf6">政</text>
      </g>
      <text x="90" y="105" font-size="16" font-weight="700" fill="#a63a2b">唐代「江南道」之西半</text>
      <text x="90" y="130" font-size="14" fill="#3a3632">省称 → 「江西」→ 今江西省</text>
      <text x="90" y="152" font-size="14" fill="#3a3632">明清口语合流：「江右」成江西别称</text>

      <line x1="20" y1="174" x2="430" y2="174" stroke="#d8cfbe" stroke-width="0.6" stroke-dasharray="2 3"/>

      <text x="20" y="200" font-size="14" font-weight="700" fill="#a63a2b">→ 「江南西道」之简称</text>
      <text x="20" y="222" font-size="11.5" fill="#8a8480">省名源于唐「江南西道」，非江之西</text>
    </g>
  </g>

  <!-- ==================== 面板三：演变时间线 ==================== -->
  <g transform="translate(60, 1440)">
    <rect width="1200" height="400" rx="6" fill="url(#panelBg)" stroke="#2e2a26" stroke-width="1.2"/>
    <rect x="8" y="8" width="1184" height="384" rx="4" fill="none" stroke="#b98a3f" stroke-width="0.6"/>

    <g transform="translate(600, 60)">
      <text text-anchor="middle" font-size="13" letter-spacing="6" fill="#a63a2b">叁</text>
      <text y="32" text-anchor="middle" font-size="26" font-weight="700" fill="#2e2a26">演变：从「精确方位」漂移为「政治—文化意象」</text>
      <line x1="-110" y1="48" x2="110" y2="48" stroke="#a63a2b" stroke-width="1"/>
    </g>

    <!-- 时间线主轴（手绘水墨感） -->
    <path d="M 100 175 C 280 172, 460 178, 600 175 C 740 172, 920 178, 1100 175"
          fill="none" stroke="#3a3632" stroke-width="2.5" stroke-linecap="round" opacity="0.85"/>
    <path d="M 100 175 C 280 172, 460 178, 600 175 C 740 172, 920 178, 1100 175"
          fill="none" stroke="#3a3632" stroke-width="6" stroke-linecap="round" opacity="0.12"/>

    <g>
      <!-- 列1：先秦秦汉 -->
      <g transform="translate(150, 175)">
        <circle r="8" fill="#fffdf6" stroke="#2e2a26" stroke-width="2"/>
        <circle r="3" fill="#2e2a26"/>
        <g transform="translate(-90, -55)">
          <rect width="180" height="34" rx="4" fill="#2e2a26"/>
          <text x="90" y="22" text-anchor="middle" font-size="14" font-weight="700" fill="#fffdf6" letter-spacing="2">先秦 · 秦汉</text>
        </g>
        <g transform="translate(-90, 30)" font-size="12" fill="#3a3632">
          <text>「江南」最早（《楚辞》）</text>
          <text y="18">多指长江中游以南</text>
          <text y="36">（湘江流域 · 今湖南）</text>
          <text y="54">屈原所哀「江南」非吴越</text>
          <text y="72">「江东」指吴地 · 二者不同</text>
        </g>
      </g>

      <!-- 列2：三国两晋（重点·朱红） -->
      <g transform="translate(380, 175)">
        <circle r="11" fill="url(#sealGrad)" stroke="#8a2a1f" stroke-width="1.5"/>
        <circle r="5" fill="#fffdf6"/>
        <g transform="translate(-90, -55)">
          <rect width="180" height="34" rx="4" fill="#a63a2b"/>
          <text x="90" y="22" text-anchor="middle" font-size="14" font-weight="700" fill="#fffdf6" letter-spacing="2">三国两晋 · 转折</text>
        </g>
        <g transform="translate(-90, 30)" font-size="12" fill="#3a3632">
          <text>孙吴据江东</text>
          <text y="18">「江东」成政权代称</text>
          <text y="36">永嘉南渡后「江左」流行</text>
          <text y="54">特指偏安东南的政权</text>
          <text y="72">与士族圈（江左风流）</text>
          <text y="90" fill="#a63a2b" font-weight="700">「江南」与「江东」合流</text>
        </g>
      </g>

      <!-- 列3：南北朝·唐 -->
      <g transform="translate(610, 175)">
        <circle r="8" fill="#fffdf6" stroke="#2e2a26" stroke-width="2"/>
        <circle r="3" fill="#2e2a26"/>
        <g transform="translate(-90, -55)">
          <rect width="180" height="34" rx="4" fill="#2e2a26"/>
          <text x="90" y="22" text-anchor="middle" font-size="14" font-weight="700" fill="#fffdf6" letter-spacing="2">南北朝 · 唐</text>
        </g>
        <g transform="translate(-90, 30)" font-size="12" fill="#3a3632">
          <text>北方称南朝为「江左」</text>
          <text y="18">「江右 / 江西」指北方</text>
          <text y="36">（江淮之间）</text>
          <text y="54">唐设「江南道」</text>
          <text y="72">分江南东道 · 西道</text>
          <text y="90">今「江西省」名源于此</text>
        </g>
      </g>

      <!-- 列4：中唐·两宋 -->
      <g transform="translate(840, 175)">
        <circle r="8" fill="#fffdf6" stroke="#2e2a26" stroke-width="2"/>
        <circle r="3" fill="#2e2a26"/>
        <g transform="translate(-90, -55)">
          <rect width="180" height="34" rx="4" fill="#2e2a26"/>
          <text x="90" y="22" text-anchor="middle" font-size="14" font-weight="700" fill="#fffdf6" letter-spacing="2">中唐 · 两宋</text>
        </g>
        <g transform="translate(-90, 30)" font-size="12" fill="#3a3632">
          <text>「江南」文学化收缩</text>
          <text y="18">专指苏杭为中心的</text>
          <text y="36">吴越膏腴之地</text>
          <text y="54" fill="#a63a2b">白居易：能不忆江南</text>
          <text y="72">「江东」退为行政区名</text>
          <text y="90">宋「江南东路」</text>
        </g>
      </g>

      <!-- 列5：明清 -->
      <g transform="translate(1070, 175)">
        <circle r="8" fill="#fffdf6" stroke="#2e2a26" stroke-width="2"/>
        <circle r="3" fill="#2e2a26"/>
        <g transform="translate(-90, -55)">
          <rect width="180" height="34" rx="4" fill="#2e2a26"/>
          <text x="90" y="22" text-anchor="middle" font-size="14" font-weight="700" fill="#fffdf6" letter-spacing="2">明　清</text>
        </g>
        <g transform="translate(-90, 30)" font-size="12" fill="#3a3632">
          <text>「江南」固定为</text>
          <text y="18">八府一州核心区</text>
          <text y="36">（苏松常杭嘉湖宁镇）</text>
          <text y="54">「江右」转为</text>
          <text y="72">「江右商帮」别称</text>
          <text y="90">脱离「江北」本义</text>
          <text y="110" fill="#a63a2b" font-weight="700">方位词 → 地域称谓</text>
        </g>
      </g>
    </g>
  </g>

  <!-- ==================== 总结条 ==================== -->
  <g transform="translate(60, 1870)">
    <rect width="1200" height="58" rx="8" fill="#a63a2b"/>
    <rect x="4" y="4" width="1192" height="50" rx="6" fill="none" stroke="#fffdf6" stroke-width="0.8" stroke-dasharray="3 3"/>
    <text x="600" y="36" text-anchor="middle" font-size="16" font-weight="700" fill="#fffdf6" letter-spacing="2">
      江东 ＝ 江左 ＝ 东南岸（狭义江南）　·　江西 ＝ 江右 ＝ 西北岸（江北）　·　今「江南」＝古「江东」　·　今「江西」＝「江南西道」省称
    </text>
  </g>

</svg>
